<svg width="78" height="36" viewBox="0 0 78 36" fill="none" xmlns="http://www.w3.org/2000/svg">
<path d="M2.52841 33V3.90909H14.0057C16.2121 3.90909 18.0919 4.33049 19.6449 5.1733C21.1979 6.00663 22.3816 7.16667 23.196 8.65341C24.0199 10.1307 24.4318 11.8352 24.4318 13.767C24.4318 15.6989 24.0152 17.4034 23.1818 18.8807C22.3485 20.358 21.1411 21.5085 19.5597 22.3324C17.9877 23.1562 16.0843 23.5682 13.8494 23.5682H6.53409V18.6392H12.8551C14.0388 18.6392 15.0142 18.4356 15.7812 18.0284C16.5578 17.6117 17.1354 17.0388 17.5142 16.3097C17.9025 15.571 18.0966 14.7235 18.0966 13.767C18.0966 12.8011 17.9025 11.9583 17.5142 11.2386C17.1354 10.5095 16.5578 9.94602 15.7812 9.5483C15.0047 9.1411 14.0199 8.9375 12.8267 8.9375H8.67898V33H2.52841Z" fill="#907AD6"/>
<path d="M28.4268 33V3.90909H39.9041C42.1106 3.90909 43.9903 4.33049 45.5433 5.1733C47.0964 6.00663 48.2801 7.16667 49.0945 8.65341C49.9183 10.1307 50.3303 11.8352 50.3303 13.767C50.3303 15.6989 49.9136 17.4034 49.0803 18.8807C48.2469 20.358 47.0395 21.5085 45.4581 22.3324C43.8861 23.1562 41.9827 23.5682 39.7479 23.5682H32.4325V18.6392H38.7536C39.9373 18.6392 40.9126 18.4356 41.6797 18.0284C42.4562 17.6117 43.0339 17.0388 43.4126 16.3097C43.8009 15.571 43.995 14.7235 43.995 13.767C43.995 12.8011 43.8009 11.9583 43.4126 11.2386C43.0339 10.5095 42.4562 9.94602 41.6797 9.5483C40.9032 9.1411 39.9183 8.9375 38.7251 8.9375H34.5774V33H28.4268ZM54.3253 33V3.90909H65.8026C68.009 3.90909 69.8887 4.33049 71.4418 5.1733C72.9948 6.00663 74.1785 7.16667 74.9929 8.65341C75.8168 10.1307 76.2287 11.8352 76.2287 13.767C76.2287 15.6989 75.812 17.4034 74.9787 18.8807C74.1454 20.358 72.938 21.5085 71.3565 22.3324C69.7846 23.1562 67.8812 23.5682 65.6463 23.5682H58.331V18.6392H64.652C65.8357 18.6392 66.8111 18.4356 67.5781 18.0284C68.3546 17.6117 68.9323 17.0388 69.3111 16.3097C69.6993 15.571 69.8935 14.7235 69.8935 13.767C69.8935 12.8011 69.6993 11.9583 69.3111 11.2386C68.9323 10.5095 68.3546 9.94602 67.5781 9.5483C66.8016 9.1411 65.8168 8.9375 64.6236 8.9375H60.4759V33H54.3253Z" fill="#4F518C"/>
</svg>
