<svg width="70" height="44" viewBox="0 0 70 44" fill="none" xmlns="http://www.w3.org/2000/svg">
<path d="M2.52841 33V3.90909H14.0057C16.2121 3.90909 18.0919 4.33049 19.6449 5.1733C21.1979 6.00663 22.3816 7.16667 23.196 8.65341C24.0199 10.1307 24.4318 11.8352 24.4318 13.767C24.4318 15.6989 24.0152 17.4034 23.1818 18.8807C22.3485 20.358 21.1411 21.5085 19.5597 22.3324C17.9877 23.1562 16.0843 23.5682 13.8494 23.5682H6.53409V18.6392H12.8551C14.0388 18.6392 15.0142 18.4356 15.7812 18.0284C16.5578 17.6117 17.1354 17.0388 17.5142 16.3097C17.9025 15.571 18.0966 14.7235 18.0966 13.767C18.0966 12.8011 17.9025 11.9583 17.5142 11.2386C17.1354 10.5095 16.5578 9.94602 15.7812 9.5483C15.0047 9.1411 14.0199 8.9375 12.8267 8.9375H8.67898V33H2.52841Z" fill="#907AD6"/>
<path d="M24.4268 33V3.90909H35.9041C38.1106 3.90909 39.9903 4.33049 41.5433 5.1733C43.0964 6.00663 44.2801 7.16667 45.0945 8.65341C45.9183 10.1307 46.3303 11.8352 46.3303 13.767C46.3303 15.6989 45.9136 17.4034 45.0803 18.8807C44.2469 20.358 43.0395 21.5085 41.4581 22.3324C39.8861 23.1562 37.9827 23.5682 35.7479 23.5682H28.4325V18.6392H34.7536C35.9373 18.6392 36.9126 18.4356 37.6797 18.0284C38.4562 17.6117 39.0339 17.0388 39.4126 16.3097C39.8009 15.571 39.995 14.7235 39.995 13.767C39.995 12.8011 39.8009 11.9583 39.4126 11.2386C39.0339 10.5095 38.4562 9.94602 37.6797 9.5483C36.9032 9.1411 35.9183 8.9375 34.7251 8.9375H30.5774V33H24.4268Z" fill="#C5B4FB"/>
<path d="M46.3253 33V3.90909H57.8026C60.009 3.90909 61.8887 4.33049 63.4418 5.1733C64.9948 6.00663 66.1785 7.16667 66.9929 8.65341C67.8168 10.1307 68.2287 11.8352 68.2287 13.767C68.2287 15.6989 67.812 17.4034 66.9787 18.8807C66.1454 20.358 64.938 21.5085 63.3565 22.3324C61.7846 23.1562 59.8812 23.5682 57.6463 23.5682H50.331V18.6392H56.652C57.8357 18.6392 58.8111 18.4356 59.5781 18.0284C60.3546 17.6117 60.9323 17.0388 61.3111 16.3097C61.6993 15.571 61.8935 14.7235 61.8935 13.767C61.8935 12.8011 61.6993 11.9583 61.3111 11.2386C60.9323 10.5095 60.3546 9.94602 59.5781 9.5483C58.8016 9.1411 57.8168 8.9375 56.6236 8.9375H52.4759V33H46.3253Z" fill="#4F518C"/>
<path d="M2.504 37.56C2.748 37.56 2.976 37.584 3.188 37.632C3.4 37.676 3.584 37.752 3.74 37.86C3.896 37.968 4.018 38.112 4.106 38.292C4.198 38.468 4.244 38.688 4.244 38.952C4.244 39.204 4.198 39.424 4.106 39.612C4.018 39.796 3.896 39.948 3.74 40.068C3.588 40.188 3.408 40.278 3.2 40.338C2.992 40.394 2.768 40.422 2.528 40.422H1.934V42H1.046V37.56H2.504ZM2.468 39.72C3.072 39.72 3.374 39.464 3.374 38.952C3.374 38.692 3.294 38.512 3.134 38.412C2.978 38.312 2.746 38.262 2.438 38.262H1.934V39.72H2.468ZM53.4323 37.728V37.14H57.5423V37.728H56.8403V38.436H57.5003V39.024H53.4683V38.436H54.1343V37.728H53.4323ZM54.9203 37.728V38.436H56.0543V37.728H54.9203ZM57.9863 39.93H52.9943V39.306H57.9863V39.93ZM57.5243 41.904V42.474H53.5703V41.076H56.6003V40.806H53.5643V40.236H57.3803V41.604H54.3563V41.904H57.5243ZM63.2539 42.51H62.5039V39.708H62.0059V42.252H61.2679V37.086H62.0059V39.072H62.5039V36.984H63.2539V42.51ZM59.4319 40.644C59.6839 40.636 59.9339 40.624 60.1819 40.608C60.4299 40.592 60.6919 40.562 60.9679 40.518L61.0279 41.16C60.6719 41.216 60.3359 41.252 60.0199 41.268C59.7079 41.284 59.3859 41.292 59.0539 41.292H58.6639V39.042H59.9839V38.16H58.6579V37.524H60.7459V39.666H59.4319V40.644ZM68.6714 42.534H67.8794V39.336H66.3914V38.694H67.8794V36.984H68.6714V42.534ZM65.1014 40.572C65.4534 40.564 65.8034 40.544 66.1514 40.512C66.5034 40.48 66.8674 40.428 67.2434 40.356L67.3334 41.004C66.8854 41.096 66.4514 41.158 66.0314 41.19C65.6114 41.218 65.1954 41.232 64.7834 41.232H64.3154V37.578H65.1014V40.572Z" fill="#907AD6"/>
<path d="M5.37195 37.62V37.086H9.15195V38.388H6.16395V38.676H9.24795V39.21H5.38395V37.89H8.37195V37.62H5.37195ZM9.76395 40.044H4.75995V39.474H9.76395V40.044ZM9.31995 41.934V42.468H5.32995V41.136H8.38395V40.854H5.32395V40.32H9.16995V41.634H6.11595V41.934H9.31995ZM16.2649 42.51H15.4729V36.99H16.2649V42.51ZM13.4329 39.57C13.2249 39.57 13.0309 39.542 12.8509 39.486C12.6749 39.426 12.5229 39.344 12.3949 39.24C12.2669 39.136 12.1649 39.012 12.0889 38.868C12.0169 38.724 11.9809 38.566 11.9809 38.394C11.9809 38.218 12.0169 38.058 12.0889 37.914C12.1649 37.77 12.2669 37.646 12.3949 37.542C12.5229 37.438 12.6749 37.358 12.8509 37.302C13.0309 37.242 13.2249 37.212 13.4329 37.212C13.6409 37.212 13.8329 37.242 14.0089 37.302C14.1849 37.358 14.3369 37.438 14.4649 37.542C14.5969 37.646 14.6989 37.77 14.7709 37.914C14.8429 38.058 14.8789 38.218 14.8789 38.394C14.8789 38.566 14.8429 38.724 14.7709 38.868C14.6989 39.012 14.5969 39.136 14.4649 39.24C14.3369 39.344 14.1849 39.426 14.0089 39.486C13.8329 39.542 13.6409 39.57 13.4329 39.57ZM13.4329 37.854C13.2289 37.854 13.0629 37.9 12.9349 37.992C12.8069 38.08 12.7429 38.214 12.7429 38.394C12.7429 38.562 12.8069 38.692 12.9349 38.784C13.0629 38.876 13.2289 38.922 13.4329 38.922C13.6369 38.922 13.8029 38.876 13.9309 38.784C14.0589 38.692 14.1229 38.562 14.1229 38.394C14.1229 38.214 14.0589 38.08 13.9309 37.992C13.8029 37.9 13.6369 37.854 13.4329 37.854ZM15.2089 40.284C14.9809 40.328 14.7549 40.366 14.5309 40.398C14.3069 40.426 14.0809 40.45 13.8529 40.47V42.348H13.0609V40.518C12.8209 40.526 12.5909 40.532 12.3709 40.536C12.1509 40.54 11.9429 40.542 11.7469 40.542L11.6569 39.894C11.8969 39.894 12.1589 39.892 12.4429 39.888C12.7309 39.884 13.0269 39.876 13.3309 39.864C13.6349 39.852 13.9429 39.834 14.2549 39.81C14.5669 39.786 14.8689 39.752 15.1609 39.708L15.2089 40.284ZM17.1584 38.19V37.572H18.3824V36.984H19.1804V37.572H20.4164L20.4104 38.19H17.1584ZM22.2404 39.33H21.5084V41.124H20.7164V36.99H21.5084V38.676H22.2404V39.33ZM20.1404 39.45C20.1404 39.61 20.1064 39.756 20.0384 39.888C19.9704 40.016 19.8764 40.128 19.7564 40.224C19.6364 40.316 19.4924 40.388 19.3244 40.44C19.1604 40.492 18.9804 40.518 18.7844 40.518C18.5844 40.518 18.4004 40.492 18.2324 40.44C18.0684 40.388 17.9264 40.316 17.8064 40.224C17.6864 40.128 17.5924 40.016 17.5244 39.888C17.4604 39.756 17.4284 39.61 17.4284 39.45C17.4284 39.294 17.4604 39.152 17.5244 39.024C17.5924 38.892 17.6864 38.78 17.8064 38.688C17.9264 38.592 18.0684 38.518 18.2324 38.466C18.4004 38.414 18.5844 38.388 18.7844 38.388C18.9804 38.388 19.1604 38.414 19.3244 38.466C19.4924 38.518 19.6364 38.592 19.7564 38.688C19.8764 38.78 19.9704 38.892 20.0384 39.024C20.1064 39.152 20.1404 39.294 20.1404 39.45ZM18.1844 39.45C18.1844 39.602 18.2384 39.718 18.3464 39.798C18.4584 39.878 18.6044 39.918 18.7844 39.918C18.9644 39.918 19.1084 39.878 19.2164 39.798C19.3284 39.718 19.3844 39.602 19.3844 39.45C19.3844 39.298 19.3284 39.184 19.2164 39.108C19.1084 39.028 18.9644 38.988 18.7844 38.988C18.6044 38.988 18.4584 39.028 18.3464 39.108C18.2384 39.184 18.1844 39.298 18.1844 39.45ZM21.7064 41.79V42.42H17.9444V40.818H18.7364V41.79H21.7064ZM24.4273 38.1V37.47H28.6273V38.1H27.8773V39.756H28.6093V40.386H24.4573V39.756H25.1773V38.1H24.4273ZM25.9633 38.1V39.756H27.0913V38.1H25.9633ZM29.0413 41.874H24.0373V41.232H29.0413V41.874ZM34.5608 41.91H29.5568V41.262H31.6568V40.44H30.1328V38.568H33.2168V37.974H30.1268V37.344H33.9968V39.186H30.9188V39.804H34.1228V40.44H32.4488V41.262H34.5608V41.91ZM35.5924 38.13V37.5H39.4624V38.154C39.4624 38.346 39.4604 38.54 39.4564 38.736C39.4564 38.932 39.4504 39.138 39.4384 39.354C39.4264 39.566 39.4064 39.792 39.3784 40.032C39.3504 40.272 39.3104 40.534 39.2584 40.818L38.4724 40.746C38.5204 40.482 38.5564 40.234 38.5804 40.002C38.6084 39.77 38.6284 39.548 38.6404 39.336C38.6564 39.124 38.6644 38.922 38.6644 38.73C38.6684 38.534 38.6704 38.342 38.6704 38.154V38.13H35.5924ZM40.0744 41.796H35.0764V41.148H40.0744V41.796ZM45.3359 42.51H44.5859V39.708H44.0879V42.252H43.3499V37.086H44.0879V39.072H44.5859V36.984H45.3359V42.51ZM41.5139 40.644C41.7659 40.636 42.0159 40.624 42.2639 40.608C42.5119 40.592 42.7739 40.562 43.0499 40.518L43.1099 41.16C42.7539 41.216 42.4179 41.252 42.1019 41.268C41.7899 41.284 41.4679 41.292 41.1359 41.292H40.7459V39.042H42.0659V38.16H40.7399V37.524H42.8279V39.666H41.5139V40.644ZM50.7534 42.528H49.9614V39.528H48.9474V41.172H46.3194V37.476H48.9474V38.892H49.9614V36.99H50.7534V42.528ZM47.0994 38.094V40.548H48.1674V38.094H47.0994Z" fill="#4F518C"/>
</svg>
